<?xml version="1.0" encoding="UTF-8" standalone="no"?><!-- Generator: Gravit.io --><svg xmlns="http://www.w3.org/2000/svg" xmlns:xlink="http://www.w3.org/1999/xlink" style="isolation:isolate" viewBox="0 0 641.319 587.997" width="641.319pt" height="587.997pt"><defs><clipPath id="_clipPath_KokLy4ydmHSuU2lPTD1FSGhjTHI4nOvj"><rect width="641.319" height="587.997"/></clipPath></defs><g clip-path="url(#_clipPath_KokLy4ydmHSuU2lPTD1FSGhjTHI4nOvj)"><g><path d=" M 457.137 33.328 C 457.137 32.92 456.805 32.59 456.395 32.59 L 455.919 32.59 C 455.509 32.59 455.177 32.92 455.177 33.328 L 455.177 36.733 C 455.177 37.14 455.509 37.473 455.919 37.473 L 456.395 37.473 C 456.805 37.473 457.137 37.14 457.137 36.733 L 457.137 33.328 Z " fill="rgb(238,71,59)"/><path d=" M 460.079 33.328 C 460.079 32.92 459.746 32.59 459.336 32.59 L 458.859 32.59 C 458.449 32.59 458.118 32.92 458.118 33.328 L 458.118 36.733 C 458.118 37.14 458.449 37.473 458.859 37.473 L 459.336 37.473 C 459.746 37.473 460.079 37.14 460.079 36.733 L 460.079 33.328 Z " fill="rgb(238,71,59)"/><path d=" M 460.079 39.187 C 460.079 38.781 459.746 38.449 459.336 38.449 L 455.919 38.449 C 455.509 38.449 455.177 38.781 455.177 39.187 L 455.177 43.569 C 455.177 43.977 455.509 44.308 455.919 44.308 L 459.336 44.308 C 459.746 44.308 460.079 43.977 460.079 43.569 L 460.079 39.187 Z " fill="rgb(238,71,59)"/><path d=" M 519.16 75.717 C 475.934 60.622 430.037 73.532 429.581 73.664 L 429.37 72.69 C 430.544 72.351 447.405 63.567 472.957 63.567 C 492.525 63.567 518.393 73.652 518.393 73.652 L 519.16 75.717 Z " fill="rgb(238,71,59)"/><path d=" M 461.302 30.636 C 461.654 30.636 461.56 31.137 461.56 31.473 L 461.56 45.343 C 461.56 45.626 461.33 45.858 461.046 45.858 L 454.233 45.858 C 453.95 45.858 453.72 45.626 453.72 45.343 L 453.72 33.192 L 455.583 30.636 L 461.302 30.636 Z  M 491.943 17.94 L 489.983 17.94 L 489.983 16.963 L 491.943 16.963 L 491.943 17.94 Z  M 491.943 22.478 L 489.983 21.654 L 489.983 18.916 L 491.943 18.916 L 491.943 22.478 Z  M 517.958 44.452 L 497.607 24.917 C 497.429 24.747 497.473 24.613 497.238 24.523 L 495.864 23.887 L 495.864 16.63 C 495.864 15.601 494.501 15.011 493.428 15.011 L 489.737 15.011 C 488.662 15.011 488.024 15.601 488.024 16.63 L 488.024 17.94 L 487.043 17.94 L 487.043 18.916 L 488.024 18.916 L 488.024 20.932 L 455.656 8.362 C 455.09 8.142 454.383 8.335 454.049 8.824 L 430.076 43.751 C 429.888 44.031 429.855 44.387 430.021 44.68 C 430.187 44.975 431.75 44.969 432.096 44.969 L 454.409 11.583 C 454.62 11.282 454.961 11.089 455.339 11.062 C 455.719 11.032 456.087 11.172 456.345 11.437 L 487.287 43.326 C 487.63 43.678 488.1 43.889 488.602 43.916 L 496.921 44.339 L 487.119 45.519 L 457.146 14.93 C 456.826 14.601 456.368 14.428 455.9 14.458 C 455.433 14.487 455 14.715 454.729 15.08 L 433.164 45.146 L 436.869 46.268 L 437.11 70.376 L 440.032 68.774 L 440.032 56.219 L 451.758 36.737 L 451.758 45.853 C 451.758 47.312 453.31 48.215 454.827 48.215 L 461.302 48.215 C 462.822 48.215 464.5 47.312 464.5 45.853 L 464.5 31.473 C 464.5 30.015 462.822 28.682 461.302 28.682 L 456.798 28.682 L 459.835 23.674 C 460.047 23.364 460.399 23.201 460.786 23.174 C 461.173 23.146 461.553 23.311 461.811 23.587 L 485.765 49.176 C 485.929 49.352 486.062 49.69 486.062 49.93 L 486.062 53.54 C 486.062 54.224 486.571 55.051 487.285 55.051 L 494.001 55.051 C 494.346 55.051 494.676 54.783 494.92 54.551 L 502.509 47.171 C 503.082 46.613 503.858 46.314 504.657 46.341 L 509.321 46.505 L 503.243 55.467 C 502.969 55.87 502.502 56.028 502 56.028 L 487.285 56.028 C 486.571 56.028 486.062 56.738 486.062 57.423 L 486.062 66.645 C 486.426 66.675 486.79 66.714 487.151 66.765 L 488.653 59.145 L 503.704 58.978 L 503.704 70.077 C 506.803 70.395 509.503 71.911 512.278 73.256 L 514.039 73.51 C 514.815 73.063 515.285 73.918 515.315 73.025 L 515.342 55.453 C 515.342 55.183 515.529 54.95 515.791 54.89 L 517.067 54.601 C 517.629 54.475 517.817 53.771 517.396 53.381 L 509.987 46.505 L 518.513 46.851 C 518.794 46.005 518.603 45.07 517.958 44.452 Z " fill="rgb(238,71,59)"/><path d=" M 362.071 109.816 C 363.041 109.816 363.867 109.693 364.55 109.447 C 365.231 109.201 365.79 108.86 366.227 108.424 C 366.662 107.988 366.979 107.478 367.176 106.895 C 367.372 106.311 367.471 105.682 367.471 105.007 C 367.471 103.657 367.031 102.602 366.152 101.843 C 365.273 101.083 363.913 100.704 362.071 100.704 L 359.202 100.704 L 359.202 109.816 L 362.071 109.816 Z  M 377.216 126.1 L 370.762 126.1 C 369.566 126.1 368.708 125.651 368.188 124.75 L 363.084 115.828 C 362.845 115.448 362.577 115.171 362.282 114.995 C 361.986 114.819 361.564 114.731 361.017 114.731 L 359.202 114.731 L 359.202 126.1 L 352.073 126.1 L 352.073 95.367 L 362.071 95.367 C 364.293 95.367 366.188 95.596 367.756 96.052 C 369.323 96.51 370.604 97.146 371.595 97.962 C 372.586 98.778 373.307 99.741 373.757 100.851 C 374.207 101.963 374.432 103.172 374.432 104.48 C 374.432 105.478 374.298 106.42 374.031 107.306 C 373.764 108.192 373.37 109.011 372.85 109.763 C 372.329 110.516 371.687 111.187 370.92 111.778 C 370.153 112.368 369.271 112.854 368.272 113.233 C 368.736 113.472 369.172 113.771 369.58 114.13 C 369.988 114.488 370.354 114.914 370.678 115.406 L 377.216 126.1 Z " fill="rgb(109,109,109)"/><path d=" M 386.981 100.851 L 386.981 108.023 L 396.643 108.023 L 396.643 113.297 L 386.981 113.297 L 386.981 120.616 L 399.596 120.616 L 399.596 126.1 L 379.811 126.1 L 379.811 95.367 L 399.596 95.367 L 399.596 100.851 L 386.981 100.851 Z " fill="rgb(109,109,109)"/><path d=" M 420.225 114.351 L 417.377 105.935 C 417.166 105.401 416.941 104.772 416.702 104.047 C 416.463 103.323 416.224 102.539 415.985 101.695 C 415.774 102.553 415.549 103.348 415.311 104.079 C 415.071 104.81 414.846 105.443 414.635 105.977 L 411.809 114.351 L 420.225 114.351 Z  M 431.552 126.1 L 426.025 126.1 C 425.406 126.1 424.907 125.956 424.528 125.668 C 424.148 125.38 423.86 125.01 423.663 124.56 L 421.85 119.203 L 410.163 119.203 L 408.35 124.56 C 408.194 124.954 407.917 125.309 407.517 125.626 C 407.115 125.942 406.62 126.1 406.029 126.1 L 400.46 126.1 L 412.357 95.367 L 419.655 95.367 L 431.552 126.1 Z " fill="rgb(109,109,109)"/><path d=" M 452.498 120.405 L 452.498 126.1 L 433.979 126.1 L 433.979 95.367 L 441.107 95.367 L 441.107 120.405 L 452.498 120.405 Z " fill="rgb(109,109,109)"/><path d=" M 482.956 95.367 L 482.956 126.1 L 475.784 126.1 L 475.784 113.107 L 463.297 113.107 L 463.297 126.1 L 456.126 126.1 L 456.126 95.367 L 463.297 95.367 L 463.297 108.213 L 475.784 108.213 L 475.784 95.367 L 482.956 95.367 Z " fill="rgb(239,86,55)"/><path d=" M 511.771 110.723 C 511.771 109.204 511.573 107.837 511.18 106.62 C 510.786 105.404 510.22 104.374 509.481 103.53 C 508.743 102.687 507.84 102.04 506.771 101.59 C 505.702 101.14 504.485 100.915 503.122 100.915 C 501.743 100.915 500.517 101.14 499.441 101.59 C 498.365 102.04 497.458 102.687 496.72 103.53 C 495.981 104.374 495.415 105.404 495.021 106.62 C 494.628 107.837 494.432 109.204 494.432 110.723 C 494.432 112.256 494.628 113.631 495.021 114.847 C 495.415 116.064 495.981 117.093 496.72 117.937 C 497.458 118.781 498.365 119.424 499.441 119.867 C 500.517 120.31 501.743 120.531 503.122 120.531 C 504.485 120.531 505.702 120.31 506.771 119.867 C 507.84 119.424 508.743 118.781 509.481 117.937 C 510.22 117.093 510.786 116.064 511.18 114.847 C 511.573 113.631 511.771 112.256 511.771 110.723 Z  M 519.068 110.723 C 519.068 112.945 518.686 115.012 517.919 116.924 C 517.152 118.837 516.073 120.5 514.681 121.913 C 513.289 123.326 511.612 124.434 509.65 125.236 C 507.688 126.037 505.513 126.438 503.122 126.438 C 500.731 126.438 498.552 126.037 496.583 125.236 C 494.614 124.434 492.93 123.326 491.531 121.913 C 490.132 120.5 489.049 118.837 488.282 116.924 C 487.516 115.012 487.133 112.945 487.133 110.723 C 487.133 108.502 487.516 106.434 488.282 104.522 C 489.049 102.61 490.132 100.95 491.531 99.544 C 492.93 98.137 494.614 97.033 496.583 96.232 C 498.552 95.43 500.731 95.029 503.122 95.029 C 505.513 95.029 507.688 95.434 509.65 96.242 C 511.612 97.051 513.289 98.159 514.681 99.565 C 516.073 100.971 517.152 102.631 517.919 104.543 C 518.686 106.455 519.068 108.516 519.068 110.723 Z " fill="rgb(239,86,55)"/><path d=" M 536.091 120.468 C 537.047 120.468 537.901 120.31 538.654 119.994 C 539.406 119.677 540.042 119.224 540.563 118.633 C 541.083 118.043 541.48 117.322 541.755 116.471 C 542.028 115.62 542.166 114.654 542.166 113.571 L 542.166 95.367 L 549.296 95.367 L 549.296 113.571 C 549.296 115.455 548.989 117.185 548.378 118.76 C 547.767 120.335 546.891 121.692 545.752 122.831 C 544.612 123.97 543.228 124.856 541.597 125.488 C 539.965 126.121 538.13 126.438 536.091 126.438 C 534.038 126.438 532.195 126.121 530.564 125.488 C 528.933 124.856 527.548 123.97 526.409 122.831 C 525.271 121.692 524.398 120.335 523.794 118.76 C 523.188 117.185 522.887 115.455 522.887 113.571 L 522.887 95.367 L 530.016 95.367 L 530.016 113.549 C 530.016 114.632 530.153 115.599 530.428 116.45 C 530.701 117.301 531.099 118.025 531.619 118.623 C 532.14 119.22 532.775 119.677 533.528 119.994 C 534.28 120.31 535.135 120.468 536.091 120.468 Z " fill="rgb(239,86,55)"/><path d=" M 571.844 101.611 C 571.633 101.948 571.412 102.201 571.18 102.37 C 570.947 102.539 570.648 102.623 570.283 102.623 C 569.96 102.623 569.611 102.521 569.239 102.318 C 568.866 102.114 568.444 101.885 567.974 101.632 C 567.502 101.379 566.964 101.151 566.359 100.946 C 565.755 100.743 565.065 100.64 564.293 100.64 C 562.956 100.64 561.962 100.925 561.308 101.495 C 560.654 102.064 560.327 102.834 560.327 103.804 C 560.327 104.423 560.523 104.937 560.918 105.344 C 561.312 105.752 561.828 106.104 562.468 106.399 C 563.107 106.694 563.839 106.965 564.662 107.211 C 565.484 107.457 566.324 107.732 567.183 108.034 C 568.04 108.336 568.881 108.691 569.703 109.099 C 570.525 109.507 571.257 110.027 571.896 110.66 C 572.536 111.293 573.054 112.063 573.447 112.969 C 573.841 113.877 574.038 114.97 574.038 116.25 C 574.038 117.67 573.792 118.999 573.3 120.236 C 572.807 121.474 572.094 122.553 571.158 123.474 C 570.224 124.395 569.07 125.119 567.699 125.647 C 566.328 126.174 564.771 126.438 563.027 126.438 C 562.07 126.438 561.097 126.339 560.105 126.142 C 559.114 125.945 558.154 125.668 557.227 125.309 C 556.298 124.951 555.426 124.526 554.61 124.033 C 553.795 123.541 553.085 122.993 552.48 122.388 L 554.59 119.055 C 554.759 118.816 554.979 118.616 555.254 118.454 C 555.528 118.292 555.827 118.211 556.15 118.211 C 556.572 118.211 556.998 118.345 557.427 118.612 C 557.855 118.88 558.341 119.174 558.882 119.498 C 559.423 119.821 560.046 120.117 560.749 120.384 C 561.452 120.651 562.281 120.785 563.238 120.785 C 564.531 120.785 565.537 120.5 566.254 119.93 C 566.972 119.361 567.33 118.458 567.33 117.22 C 567.33 116.503 567.133 115.92 566.739 115.469 C 566.346 115.019 565.829 114.647 565.189 114.351 C 564.549 114.056 563.821 113.796 563.006 113.571 C 562.19 113.346 561.354 113.096 560.496 112.822 C 559.638 112.548 558.801 112.21 557.985 111.809 C 557.17 111.409 556.442 110.882 555.803 110.227 C 555.162 109.573 554.646 108.758 554.252 107.78 C 553.858 106.803 553.661 105.597 553.661 104.163 C 553.661 103.01 553.894 101.885 554.357 100.788 C 554.821 99.691 555.504 98.714 556.403 97.856 C 557.304 96.999 558.407 96.313 559.715 95.799 C 561.023 95.286 562.521 95.029 564.208 95.029 C 565.15 95.029 566.067 95.103 566.961 95.251 C 567.854 95.399 568.701 95.617 569.503 95.905 C 570.305 96.193 571.053 96.538 571.749 96.939 C 572.445 97.339 573.067 97.793 573.616 98.299 L 571.844 101.611 Z " fill="rgb(239,86,55)"/><path d=" M 585.406 100.851 L 585.406 108.023 L 595.067 108.023 L 595.067 113.297 L 585.406 113.297 L 585.406 120.616 L 598.021 120.616 L 598.021 126.1 L 578.235 126.1 L 578.235 95.367 L 598.021 95.367 L 598.021 100.851 L 585.406 100.851 Z " fill="rgb(239,86,55)"/><path d=" M 401.896 143.556 L 400.305 139.433 C 400.257 139.31 400.208 139.167 400.155 139.005 C 400.104 138.842 400.055 138.669 400.007 138.485 C 399.908 138.867 399.807 139.185 399.703 139.44 L 398.111 143.556 L 401.896 143.556 Z  M 404.753 147.319 L 403.692 147.319 C 403.569 147.319 403.471 147.288 403.396 147.227 C 403.319 147.166 403.263 147.088 403.226 146.994 L 402.277 144.547 L 397.729 144.547 L 396.782 146.994 C 396.754 147.078 396.699 147.154 396.619 147.22 C 396.539 147.286 396.44 147.319 396.322 147.319 L 395.261 147.319 L 399.314 137.183 L 400.7 137.183 L 404.753 147.319 Z " fill="rgb(109,109,109)"/><path d=" M 415.009 137.183 L 415.009 147.319 L 414.323 147.319 C 414.215 147.319 414.124 147.3 414.051 147.262 C 413.978 147.225 413.905 147.161 413.835 147.071 L 407.972 139.433 C 407.98 139.55 407.988 139.666 407.992 139.779 C 407.997 139.892 408 139.998 408 140.097 L 408 147.319 L 406.797 147.319 L 406.797 137.183 L 407.505 137.183 C 407.565 137.183 407.618 137.187 407.66 137.194 C 407.703 137.201 407.74 137.213 407.773 137.229 C 407.807 137.246 407.84 137.269 407.872 137.3 C 407.905 137.331 407.94 137.37 407.979 137.417 L 413.842 145.048 C 413.833 144.926 413.824 144.807 413.817 144.692 C 413.811 144.576 413.807 144.466 413.807 144.362 L 413.807 137.183 L 415.009 137.183 Z " fill="rgb(109,109,109)"/><path d=" M 428.887 146.201 L 428.88 147.319 L 422.634 147.319 L 422.634 137.183 L 428.88 137.183 L 428.88 138.301 L 424.007 138.301 L 424.007 141.668 L 427.953 141.668 L 427.953 142.743 L 424.007 142.743 L 424.007 146.201 L 428.887 146.201 Z " fill="rgb(109,109,109)"/><path d=" M 436.694 138.768 C 436.652 138.839 436.606 138.891 436.557 138.927 C 436.507 138.962 436.447 138.98 436.376 138.98 C 436.296 138.98 436.202 138.94 436.094 138.86 C 435.985 138.779 435.85 138.691 435.687 138.594 C 435.524 138.498 435.328 138.409 435.1 138.329 C 434.871 138.249 434.594 138.209 434.269 138.209 C 433.962 138.209 433.692 138.25 433.459 138.333 C 433.226 138.415 433.029 138.527 432.872 138.669 C 432.714 138.81 432.595 138.976 432.515 139.167 C 432.435 139.358 432.395 139.565 432.395 139.786 C 432.395 140.069 432.464 140.304 432.603 140.49 C 432.742 140.676 432.926 140.836 433.154 140.967 C 433.384 141.099 433.643 141.214 433.933 141.31 C 434.223 141.407 434.52 141.507 434.824 141.611 C 435.128 141.715 435.425 141.832 435.715 141.961 C 436.005 142.091 436.265 142.255 436.493 142.453 C 436.722 142.651 436.905 142.894 437.045 143.181 C 437.184 143.469 437.254 143.822 437.254 144.242 C 437.254 144.686 437.178 145.102 437.027 145.49 C 436.876 145.88 436.656 146.218 436.366 146.506 C 436.076 146.793 435.72 147.02 435.298 147.185 C 434.876 147.35 434.396 147.432 433.858 147.432 C 433.198 147.432 432.6 147.313 432.062 147.075 C 431.524 146.837 431.064 146.515 430.683 146.11 L 431.079 145.459 C 431.116 145.407 431.162 145.363 431.217 145.328 C 431.271 145.293 431.331 145.275 431.397 145.275 C 431.458 145.275 431.528 145.299 431.605 145.349 C 431.684 145.399 431.771 145.461 431.871 145.537 C 431.97 145.612 432.083 145.694 432.21 145.784 C 432.338 145.874 432.482 145.956 432.646 146.032 C 432.808 146.107 432.993 146.17 433.2 146.219 C 433.408 146.269 433.642 146.294 433.901 146.294 C 434.227 146.294 434.517 146.249 434.771 146.159 C 435.025 146.069 435.241 145.944 435.418 145.78 C 435.595 145.618 435.73 145.423 435.825 145.197 C 435.919 144.971 435.966 144.718 435.966 144.44 C 435.966 144.134 435.896 143.882 435.758 143.687 C 435.618 143.491 435.436 143.327 435.209 143.195 C 434.983 143.064 434.724 142.951 434.432 142.86 C 434.139 142.767 433.842 142.673 433.54 142.576 C 433.238 142.48 432.941 142.368 432.649 142.24 C 432.356 142.113 432.098 141.948 431.871 141.745 C 431.645 141.543 431.462 141.289 431.323 140.985 C 431.184 140.681 431.114 140.305 431.114 139.857 C 431.114 139.499 431.184 139.152 431.323 138.817 C 431.462 138.483 431.665 138.185 431.931 137.926 C 432.197 137.667 432.525 137.459 432.914 137.303 C 433.303 137.148 433.75 137.07 434.255 137.07 C 434.82 137.07 435.336 137.16 435.8 137.339 C 436.265 137.518 436.674 137.777 437.027 138.117 L 436.694 138.768 Z " fill="rgb(109,109,109)"/><path d=" M 446.745 138.336 L 443.463 138.336 L 443.463 147.319 L 442.098 147.319 L 442.098 138.336 L 438.809 138.336 L 438.809 137.183 L 446.745 137.183 L 446.745 138.336 Z " fill="rgb(109,109,109)"/><path d=" M 453.345 143.556 L 451.754 139.433 C 451.706 139.31 451.657 139.167 451.604 139.005 C 451.553 138.842 451.504 138.669 451.456 138.485 C 451.357 138.867 451.256 139.185 451.152 139.44 L 449.561 143.556 L 453.345 143.556 Z  M 456.202 147.319 L 455.142 147.319 C 455.019 147.319 454.92 147.288 454.845 147.227 C 454.769 147.166 454.712 147.088 454.675 146.994 L 453.727 144.547 L 449.179 144.547 L 448.231 146.994 C 448.203 147.078 448.148 147.154 448.068 147.22 C 447.988 147.286 447.89 147.319 447.771 147.319 L 446.71 147.319 L 450.764 137.183 L 452.149 137.183 L 456.202 147.319 Z " fill="rgb(109,109,109)"/><path d=" M 464.104 138.336 L 460.821 138.336 L 460.821 147.319 L 459.456 147.319 L 459.456 138.336 L 456.167 138.336 L 456.167 137.183 L 464.104 137.183 L 464.104 138.336 Z " fill="rgb(109,109,109)"/><path d=" M 472.563 146.201 L 472.556 147.319 L 466.31 147.319 L 466.31 137.183 L 472.556 137.183 L 472.556 138.301 L 467.683 138.301 L 467.683 141.668 L 471.629 141.668 L 471.629 142.743 L 467.683 142.743 L 467.683 146.201 L 472.563 146.201 Z " fill="rgb(109,109,109)"/><path d=" M 486.631 145.225 C 486.706 145.225 486.772 145.256 486.829 145.318 L 487.373 145.904 C 486.958 146.385 486.455 146.76 485.863 147.029 C 485.271 147.298 484.556 147.432 483.717 147.432 C 482.99 147.432 482.33 147.306 481.736 147.054 C 481.142 146.801 480.635 146.448 480.215 145.993 C 479.796 145.538 479.47 144.992 479.239 144.356 C 479.008 143.719 478.893 143.019 478.893 142.255 C 478.893 141.491 479.013 140.791 479.253 140.154 C 479.494 139.517 479.832 138.97 480.269 138.513 C 480.704 138.056 481.227 137.701 481.835 137.448 C 482.443 137.196 483.115 137.07 483.851 137.07 C 484.572 137.07 485.209 137.186 485.761 137.417 C 486.313 137.648 486.798 137.962 487.218 138.358 L 486.765 138.987 C 486.736 139.034 486.7 139.073 486.655 139.104 C 486.61 139.134 486.551 139.15 486.475 139.15 C 486.39 139.15 486.286 139.104 486.164 139.012 C 486.041 138.92 485.881 138.817 485.683 138.704 C 485.484 138.591 485.237 138.488 484.94 138.396 C 484.643 138.304 484.277 138.258 483.844 138.258 C 483.32 138.258 482.842 138.349 482.408 138.531 C 481.974 138.712 481.601 138.975 481.287 139.319 C 480.974 139.664 480.729 140.083 480.555 140.578 C 480.38 141.073 480.293 141.632 480.293 142.255 C 480.293 142.886 480.384 143.45 480.565 143.945 C 480.747 144.44 480.994 144.859 481.308 145.201 C 481.622 145.543 481.992 145.803 482.419 145.982 C 482.846 146.161 483.307 146.251 483.802 146.251 C 484.104 146.251 484.375 146.233 484.618 146.198 C 484.861 146.163 485.085 146.107 485.29 146.032 C 485.495 145.956 485.687 145.861 485.863 145.745 C 486.04 145.63 486.216 145.492 486.39 145.332 C 486.471 145.261 486.551 145.225 486.631 145.225 Z " fill="rgb(109,109,109)"/><path d=" M 497.431 142.255 C 497.431 141.632 497.346 141.073 497.176 140.578 C 497.006 140.083 496.766 139.665 496.454 139.323 C 496.143 138.981 495.766 138.718 495.322 138.534 C 494.879 138.35 494.384 138.258 493.837 138.258 C 493.295 138.258 492.802 138.35 492.359 138.534 C 491.916 138.718 491.537 138.981 491.224 139.323 C 490.91 139.665 490.668 140.083 490.499 140.578 C 490.329 141.073 490.244 141.632 490.244 142.255 C 490.244 142.877 490.329 143.435 490.499 143.927 C 490.668 144.42 490.91 144.838 491.224 145.179 C 491.537 145.521 491.916 145.783 492.359 145.965 C 492.802 146.146 493.295 146.237 493.837 146.237 C 494.384 146.237 494.879 146.146 495.322 145.965 C 495.766 145.783 496.143 145.521 496.454 145.179 C 496.766 144.838 497.006 144.42 497.176 143.927 C 497.346 143.435 497.431 142.877 497.431 142.255 Z  M 498.838 142.255 C 498.838 143.014 498.718 143.711 498.478 144.345 C 498.236 144.979 497.897 145.525 497.459 145.982 C 497.021 146.44 496.493 146.795 495.878 147.047 C 495.263 147.299 494.582 147.425 493.837 147.425 C 493.092 147.425 492.413 147.299 491.8 147.047 C 491.188 146.795 490.661 146.44 490.223 145.982 C 489.784 145.525 489.444 144.979 489.204 144.345 C 488.964 143.711 488.844 143.014 488.844 142.255 C 488.844 141.496 488.964 140.799 489.204 140.165 C 489.444 139.53 489.784 138.984 490.223 138.524 C 490.661 138.064 491.188 137.707 491.8 137.452 C 492.413 137.197 493.092 137.07 493.837 137.07 C 494.582 137.07 495.263 137.197 495.878 137.452 C 496.493 137.707 497.021 138.064 497.459 138.524 C 497.897 138.984 498.236 139.53 498.478 140.165 C 498.718 140.799 498.838 141.496 498.838 142.255 Z " fill="rgb(109,109,109)"/><path d=" M 512.05 137.183 L 512.05 147.319 L 510.848 147.319 L 510.848 139.871 C 510.848 139.772 510.852 139.666 510.858 139.553 C 510.865 139.44 510.874 139.324 510.883 139.206 L 507.403 145.544 C 507.295 145.756 507.13 145.862 506.908 145.862 L 506.71 145.862 C 506.488 145.862 506.323 145.756 506.215 145.544 L 502.664 139.178 C 502.692 139.428 502.707 139.659 502.707 139.871 L 502.707 147.319 L 501.504 147.319 L 501.504 137.183 L 502.516 137.183 C 502.639 137.183 502.732 137.195 502.799 137.219 C 502.864 137.242 502.929 137.308 502.989 137.417 L 506.491 143.655 C 506.548 143.768 506.603 143.886 506.657 144.009 C 506.711 144.132 506.762 144.257 506.81 144.383 C 506.856 144.257 506.905 144.13 506.958 144.005 C 507.01 143.881 507.066 143.761 507.127 143.648 L 510.564 137.417 C 510.621 137.308 510.684 137.242 510.752 137.219 C 510.82 137.195 510.916 137.183 511.039 137.183 L 512.05 137.183 Z " fill="rgb(109,109,109)"/><path d=" M 518.339 142.439 C 518.73 142.439 519.076 142.387 519.375 142.283 C 519.675 142.179 519.927 142.034 520.132 141.848 C 520.337 141.662 520.491 141.439 520.596 141.179 C 520.699 140.92 520.751 140.635 520.751 140.324 C 520.751 139.678 520.552 139.173 520.153 138.81 C 519.755 138.447 519.15 138.265 518.339 138.265 L 516.712 138.265 L 516.712 142.439 L 518.339 142.439 Z  M 518.339 137.183 C 518.98 137.183 519.538 137.257 520.012 137.406 C 520.485 137.555 520.878 137.766 521.189 138.039 C 521.501 138.313 521.732 138.643 521.886 139.029 C 522.039 139.416 522.116 139.847 522.116 140.324 C 522.116 140.795 522.033 141.227 521.868 141.618 C 521.703 142.009 521.462 142.347 521.144 142.63 C 520.825 142.912 520.432 143.133 519.962 143.291 C 519.493 143.449 518.952 143.528 518.339 143.528 L 516.712 143.528 L 516.712 147.319 L 515.347 147.319 L 515.347 137.183 L 518.339 137.183 Z " fill="rgb(109,109,109)"/><path d=" M 529.225 143.556 L 527.634 139.433 C 527.586 139.31 527.537 139.167 527.484 139.005 C 527.433 138.842 527.384 138.669 527.336 138.485 C 527.237 138.867 527.136 139.185 527.032 139.44 L 525.44 143.556 L 529.225 143.556 Z  M 532.082 147.319 L 531.021 147.319 C 530.898 147.319 530.8 147.288 530.725 147.227 C 530.648 147.166 530.592 147.088 530.555 146.994 L 529.606 144.547 L 525.059 144.547 L 524.111 146.994 C 524.083 147.078 524.028 147.154 523.948 147.22 C 523.868 147.286 523.77 147.319 523.651 147.319 L 522.59 147.319 L 526.644 137.183 L 528.029 137.183 L 532.082 147.319 Z " fill="rgb(109,109,109)"/><path d=" M 542.338 137.183 L 542.338 147.319 L 541.652 147.319 C 541.544 147.319 541.453 147.3 541.38 147.262 C 541.307 147.225 541.234 147.161 541.164 147.071 L 535.301 139.433 C 535.31 139.55 535.317 139.666 535.321 139.779 C 535.326 139.892 535.329 139.998 535.329 140.097 L 535.329 147.319 L 534.126 147.319 L 534.126 137.183 L 534.834 137.183 C 534.895 137.183 534.947 137.187 534.989 137.194 C 535.032 137.201 535.069 137.213 535.103 137.229 C 535.136 137.246 535.169 137.269 535.201 137.3 C 535.234 137.331 535.27 137.37 535.308 137.417 L 541.171 145.048 C 541.162 144.926 541.153 144.807 541.146 144.692 C 541.14 144.576 541.136 144.466 541.136 144.362 L 541.136 137.183 L 542.338 137.183 Z " fill="rgb(109,109,109)"/><path d=" M 549.44 143.28 L 549.44 147.319 L 548.068 147.319 L 548.068 143.28 L 544.354 137.183 L 545.558 137.183 C 545.68 137.183 545.776 137.213 545.848 137.272 C 545.918 137.331 545.979 137.407 546.031 137.502 L 548.352 141.441 C 548.437 141.607 548.514 141.761 548.585 141.904 C 548.655 142.048 548.717 142.194 548.769 142.34 C 548.82 142.194 548.879 142.048 548.945 141.904 C 549.012 141.761 549.084 141.607 549.165 141.441 L 551.478 137.502 C 551.52 137.422 551.579 137.348 551.654 137.282 C 551.729 137.216 551.826 137.183 551.944 137.183 L 553.154 137.183 L 549.44 143.28 Z " fill="rgb(109,109,109)"/></g></g></svg>